<!--?xml version="1.0" encoding="utf-8"?-->
<!-- Generator: Adobe Illustrator 18.0.0, SVG Export Plug-In . SVG Version: 6.00 Build 0)  -->

<svg version="1.1" id="_x31_0" xmlns="http://www.w3.org/2000/svg" xmlns:xlink="http://www.w3.org/1999/xlink" x="0px" y="0px" viewBox="0 0 512 512" style="width: 256px; height: 256px; opacity: 1;" xml:space="preserve">
<style type="text/css">
	.st0{fill:#374149;}
</style>
<g>
	<path class="st0" d="M511.327,408.224l-2.595-4.809l-47.842-60.18c-0.143-1.011-0.673-1.97-1.489-2.886
		c-0.007-0.007-0.018-0.014-0.022-0.018V106.18c0-11.894-9.735-21.629-21.632-21.629H74.232c-11.898,0-21.629,9.735-21.629,21.629
		v234.169h-0.004c-0.816,0.916-1.298,1.875-1.489,2.886l-47.842,60.18l-2.595,4.809C0.239,409.136,0,410,0,410.868v5.048
		c0,6.342,5.191,11.533,11.585,11.533h488.83c6.394,0,11.585-5.191,11.585-11.533v-5.048C512,410,511.761,409.136,511.327,408.224z
		 M195.044,388.989l12.838-24.198h96.217l12.838,24.198H195.044z M420.922,334.199H91.059V123.004h329.863V334.199z"></path>
</g>
</svg>
