<!--?xml version="1.0" encoding="utf-8"?-->
<!-- Generator: Adobe Illustrator 19.1.1, SVG Export Plug-In . SVG Version: 6.00 Build 0)  -->
<svg version="1.1" id="_x31_0" xmlns="http://www.w3.org/2000/svg" xmlns:xlink="http://www.w3.org/1999/xlink" x="0px" y="0px" viewBox="0 0 512 512" style="width: 256px; height: 256px; opacity: 1;" xml:space="preserve">
<style type="text/css">
	.st0{fill:#374149;}
</style>
<g>
	<rect x="29.199" y="328.65" class="st0" width="14.77" height="26.402"></rect>
	<rect x="216.238" y="328.65" class="st0" width="16.07" height="26.402"></rect>
	<polygon class="st0" points="259.121,328.81 259.121,328.65 243.05,328.65 243.05,355.053 259.121,355.053 259.121,328.893 
		259.125,328.81 	"></polygon>
	<rect x="269.867" y="328.65" class="st0" width="16.07" height="26.402"></rect>
	<polygon class="st0" points="298.344,354.732 298.344,354.893 298.344,354.893 298.344,355.053 314.414,355.053 314.414,328.65 
		298.344,328.65 	"></polygon>
	<polygon class="st0" points="346.082,328.81 346.082,328.65 330.012,328.65 330.012,355.053 346.082,355.053 346.082,328.893 
		346.082,328.81 	"></polygon>
	<polygon class="st0" points="205.633,328.81 205.633,328.65 189.293,328.65 189.293,354.814 189.289,354.893 189.293,354.893 
		189.293,355.053 205.633,355.053 205.633,328.893 205.633,328.81 	"></polygon>
	<rect x="82.047" y="328.65" class="st0" width="16.328" height="26.402"></rect>
	<polygon class="st0" points="55.226,354.814 55.226,354.893 55.226,354.893 55.226,355.053 71.57,355.053 71.57,328.65 
		55.226,328.65 	"></polygon>
	<polygon class="st0" points="125.187,328.81 125.187,328.65 108.859,328.65 108.859,354.814 108.859,354.893 108.859,354.893 
		108.859,355.053 125.187,355.053 125.187,328.893 125.187,328.81 	"></polygon>
	<rect x="162.484" y="328.65" class="st0" width="16.329" height="26.402"></rect>
	<polygon class="st0" points="152.008,328.81 152.008,328.65 135.664,328.65 135.664,355.053 152.008,355.053 152.008,328.97 
		152.008,328.81 	"></polygon>
	<polygon class="st0" points="414.758,354.814 414.758,354.893 414.758,354.893 414.758,355.053 430.828,355.053 430.828,328.65 
		414.758,328.65 	"></polygon>
	<polygon class="st0" points="442.695,354.732 442.695,354.893 442.695,354.893 442.695,355.053 458.766,355.053 458.766,328.65 
		442.695,328.65 	"></polygon>
	<polygon class="st0" points="486.703,328.81 486.703,328.65 470.633,328.65 470.633,354.732 470.633,354.893 470.633,354.893 
		470.633,355.053 486.703,355.053 486.703,328.893 486.703,328.81 	"></polygon>
	<polygon class="st0" points="403.027,328.81 403.027,328.65 386.683,328.65 386.683,355.053 403.027,355.053 403.027,328.97 
		403.027,328.81 	"></polygon>
	<polygon class="st0" points="375.082,328.81 375.082,328.65 358.754,328.65 358.754,354.814 358.75,354.893 358.754,354.893 
		358.754,355.053 375.082,355.053 375.082,328.893 375.086,328.81 	"></polygon>
	<polygon class="st0" points="451.754,203.158 451.754,203.158 451.754,202.998 442.527,202.998 419.082,226.443 419.082,273.553 
		451.754,273.553 451.754,203.588 	"></polygon>
	<polygon class="st0" points="139.031,273.393 139.031,273.553 171.703,273.553 171.703,202.998 164.774,202.998 139.031,228.74 
		139.031,273.26 139.031,273.393 	"></polygon>
	<polygon class="st0" points="85.11,202.998 78.969,202.998 52.438,229.53 52.438,273.553 85.11,273.553 	"></polygon>
	<path class="st0" d="M498.242,261.588h13.515h0.086l0,0H512v-48.172v-0.149l0,0v-0.16h-13.758c-7.762,0-14-6.32-14-14
		c0-3.922,1.519-7.442,4.078-9.922c2.563-2.558,6.082-4.16,9.922-4.16h13.515h0.086l0,0H512v-27.832v-0.082l0,0v-0.164H0v28.078
		h5.359c3.844,0,7.363,1.602,9.922,4.16c2.48,2.48,4.078,6,4.078,9.922c0,7.68-6.316,14-14,14H0v48.481h5.359
		c3.844,0,7.363,1.598,9.922,4.16c2.48,2.558,4.078,6.078,4.078,9.918c0,7.762-6.316,14-14,14H0v54.962h14.074h0.09l0,0h0.156
		v-22.962h300.242h1.84l0,0h0.16v-11.277c0-3.282,2.719-6,6-6c3.359,0,6,2.718,6,6v11.277H498.16h0.883V344.4l-0.004,0.07h0.004
		v0.157H512v-54.633v-0.164l0,0v-0.165h-13.758c-7.762,0-14-6.238-14-14c0-3.839,1.519-7.359,4.078-9.918
		C490.883,263.186,494.402,261.588,498.242,261.588z M466.641,288.389h-62.398V188.146h62.175h0.223v99.789V288.389z
		 M381.922,188.146v100.242h-62.32V188.146h62.098H381.922z M273.121,288.389h-62.32V188.146h62.098h0.222v100.098V288.389z
		 M186.562,188.146v100.242H124.16V188.146h62.18H186.562z M99.922,188.146v100.242h-62.32V188.146h62.098H99.922z"></path>
	<polygon class="st0" points="250.578,202.998 225.645,227.928 225.645,273.553 258.297,273.553 258.297,202.998 	"></polygon>
	<polygon class="st0" points="367.106,202.998 359.961,202.998 334.434,228.526 334.434,273.553 367.106,273.553 	"></polygon>
</g>
</svg>
